<svg xmlns="http://www.w3.org/2000/svg" width="366" height="33" viewBox="0 0 366 33" fill="none"><path fill-rule="evenodd" clip-rule="evenodd" d="M44.7111 10.5902C46.6473 8.71058 49.7744 7.62854 53.9123 7.4063C54.5437 7.3724 56.6924 7.39199 57.2729 7.43697C60.6072 7.69524 63.2062 8.51589 65.0413 9.88989C66.909 11.2882 67.8848 13.0902 68.04 15.4269C68.1527 17.1245 67.7174 18.7786 66.7984 20.1453C66.5848 20.463 66.2762 20.858 66.0627 21.087L65.9142 21.2462L68.0931 23.2689C69.2915 24.3814 70.3099 25.331 70.3562 25.3792L70.4403 25.4668L66.0306 25.466L61.6209 25.4653L60.6812 24.5907C60.1644 24.1097 59.7272 23.7221 59.7097 23.7294C58.6582 24.168 57.9726 24.3627 56.8503 24.5414C54.7932 24.8689 52.342 24.8106 50.2332 24.3838C46.5563 23.6397 44.0398 21.7573 43.0181 18.9867C42.8649 18.5711 42.6717 17.8017 42.6065 17.3471C42.3041 15.239 42.6798 13.3051 43.6828 11.8075C43.9998 11.3342 44.2508 11.0369 44.7111 10.5902ZM27.5294 20.155L27.5213 24.0971H23.6034H19.6856V16.0541V8.01104H23.6034H27.5213L27.5294 11.5854L27.5375 15.1598L31.0255 11.5868L34.5134 8.01378L39.3 8.01241L44.0866 8.01104L43.7914 8.27727C43.629 8.4237 41.7116 10.1376 39.5304 12.0859C37.3492 14.0342 35.5605 15.6396 35.5555 15.6536C35.5486 15.6724 43.6044 23.2925 44.3541 23.9764L44.4836 24.0945H39.6259H34.7683L31.1529 20.1536L27.5375 16.2128L27.5294 20.155ZM60.0991 15.8789C60.0088 13.7745 58.6029 12.6178 55.9191 12.4396C54.8945 12.3715 53.9391 12.4527 53.116 12.6777C51.9137 13.0063 51.0745 13.6896 50.6973 14.6466C50.4082 15.3802 50.3535 16.3439 50.5558 17.1371C50.9328 18.6151 52.2056 19.48 54.2859 19.6719C54.8324 19.7223 56.0912 19.6949 56.5721 19.6221C57.597 19.4671 58.3742 19.163 58.9686 18.6846C59.7528 18.0533 60.15 17.0674 60.0991 15.8789ZM0 24.0971V16.0541V8.01104H3.918H7.836V13.3147V18.6183H12.614H17.3921V21.3577V24.0971H8.69604H0Z" fill="#EEEEEE"></path><path fill-rule="evenodd" clip-rule="evenodd" d="M122.959 9.80714C123.637 8.40612 124.54 7.36665 125.715 6.59835C126.891 5.87525 128.201 5.4685 129.602 5.4685C130.732 5.4685 131.772 5.69447 132.675 6.1916C133.579 6.68874 134.302 7.32146 134.8 8.13495V0H141.082V23.6366H134.8V21.1509C134.302 21.9644 133.624 22.6423 132.721 23.1394C131.817 23.6366 130.777 23.8625 129.557 23.8625C128.111 23.8625 126.845 23.501 125.67 22.7327C124.495 22.0096 123.591 20.9249 122.913 19.5239C122.236 18.1229 121.919 16.4959 121.919 14.6429C121.919 12.79 122.281 11.2082 122.959 9.80714ZM133.896 11.9313C133.263 11.2534 132.495 10.937 131.591 10.937C130.642 10.937 129.873 11.2534 129.241 11.9313C128.608 12.564 128.337 13.5131 128.337 14.6429C128.337 15.7728 128.653 16.7219 129.241 17.3546C129.873 18.0325 130.642 18.3488 131.591 18.3488C132.495 18.3488 133.263 18.0325 133.896 17.3546C134.528 16.6767 134.845 15.7728 134.845 14.5977C134.845 13.5131 134.528 12.6092 133.896 11.9313ZM103.435 9.80714C104.113 8.40612 105.016 7.36666 106.192 6.59835C107.367 5.87525 108.632 5.4685 110.078 5.4685C111.298 5.4685 112.383 5.69447 113.287 6.19161C114.191 6.68874 114.869 7.32146 115.366 8.18015V5.69447H121.603V23.5914H115.321V21.1057C114.824 21.9192 114.146 22.5971 113.242 23.0942C112.338 23.5914 111.298 23.8173 110.078 23.8173C108.632 23.8173 107.367 23.4558 106.192 22.6875C105.016 21.9644 104.113 20.8797 103.435 19.4787C102.757 18.1229 102.44 16.4959 102.44 14.6429C102.44 12.79 102.757 11.2082 103.435 9.80714ZM114.372 11.9313C113.739 11.2534 112.971 10.937 112.067 10.937C111.118 10.937 110.349 11.2534 109.717 11.9313C109.084 12.564 108.813 13.5131 108.813 14.6429C108.813 15.7728 109.129 16.7219 109.717 17.3546C110.349 18.0325 111.118 18.3488 112.067 18.3488C112.971 18.3488 113.739 18.0325 114.372 17.3546C115.004 16.6767 115.321 15.7728 115.321 14.5977C115.321 13.5131 115.004 12.6092 114.372 11.9313ZM154.595 5.69447L151.25 17.7161L147.861 5.73967H141.172L147.318 23.5914H155.137L161.283 5.69447H154.595ZM177.192 15.9536H165.351C165.396 16.9478 165.667 17.6709 166.164 18.1229C166.661 18.62 167.249 18.846 168.017 18.846C169.057 18.846 169.825 18.394 170.232 17.445H176.92C176.649 18.6652 176.107 19.7951 175.293 20.7441C174.48 21.6932 173.486 22.4615 172.265 23.049C171.045 23.5914 169.689 23.8625 168.243 23.8625C166.481 23.8625 164.899 23.501 163.543 22.7327C162.187 22.0096 161.102 20.9249 160.334 19.5239C159.566 18.1229 159.159 16.4959 159.159 14.6429C159.159 12.79 159.521 11.163 160.289 9.76195C161.057 8.40612 162.142 7.32146 163.498 6.59835C164.854 5.87525 166.435 5.4685 168.243 5.4685C170.006 5.4685 171.588 5.83005 172.943 6.55316C174.299 7.27627 175.384 8.31573 176.152 9.67156C176.92 11.0274 177.282 12.6092 177.282 14.4621C177.282 14.9593 177.282 15.4564 177.192 15.9536ZM170.91 12.9255C170.91 12.1572 170.638 11.5697 170.141 11.1178C169.644 10.6658 169.011 10.4851 168.243 10.4851C167.475 10.4851 166.842 10.711 166.345 11.1178C165.848 11.5245 165.532 12.1572 165.396 12.9707H170.91V12.9255ZM189.891 5.55888C188.761 5.55888 187.677 5.87524 186.682 6.46276C185.643 7.05029 184.829 7.86378 184.106 8.90325V5.73966H177.869V23.6366H184.106V15.818C184.106 14.5073 184.423 13.6034 185.101 13.0611C185.733 12.5188 186.773 12.2476 188.129 12.2476H189.891V5.55888ZM200.693 6.64355C201.597 7.14068 202.274 7.7734 202.772 8.63209V6.10122H209.008V23.8173C209.008 25.4895 208.692 27.0261 208.059 28.382C207.427 29.7378 206.432 30.8224 205.076 31.6359C203.721 32.4494 202.003 32.8562 199.97 32.8562C197.213 32.8562 194.998 32.2235 193.326 30.9128C191.654 29.6022 190.705 27.8396 190.479 25.6251H196.67C196.806 26.2126 197.122 26.6646 197.619 26.9809C198.117 27.2973 198.794 27.4781 199.608 27.4781C201.732 27.4781 202.817 26.303 202.817 23.9077V21.6028C202.32 22.4163 201.642 23.0942 200.738 23.5914C199.834 24.0885 198.794 24.3145 197.574 24.3145C196.128 24.3145 194.863 23.9529 193.688 23.1846C192.512 22.4615 191.609 21.3769 190.931 19.9758C190.253 18.5748 189.936 16.9478 189.936 15.0949C189.936 13.2419 190.253 11.6149 190.931 10.2591C191.609 8.85806 192.512 7.8186 193.688 7.0503C194.863 6.32719 196.128 5.92044 197.574 5.92044C198.749 5.92044 199.789 6.14641 200.693 6.64355ZM201.868 12.338C201.235 11.6601 200.467 11.3437 199.563 11.3437C198.614 11.3437 197.845 11.6601 197.213 12.338C196.58 12.9707 196.309 13.9198 196.309 15.0497C196.309 16.1795 196.625 17.1286 197.213 17.7613C197.845 18.4392 198.614 18.7556 199.563 18.7556C200.467 18.7556 201.235 18.4392 201.868 17.7613C202.5 17.0834 202.817 16.1795 202.817 15.0045C202.817 13.9198 202.5 13.0159 201.868 12.338ZM215.607 16.3603H227.448C227.493 15.8632 227.538 15.366 227.538 14.8689C227.538 13.0159 227.176 11.4341 226.408 10.0783C225.64 8.72248 224.555 7.68301 223.199 6.95991C221.843 6.2368 220.262 5.87525 218.499 5.87525C216.691 5.87525 215.11 6.28199 213.754 7.0051C212.398 7.72821 211.313 8.76767 210.545 10.1687C209.777 11.5697 209.415 13.1967 209.415 15.0497C209.415 16.9026 209.822 18.5296 210.59 19.9306C211.358 21.3317 212.443 22.4163 213.799 23.1394C215.155 23.9077 216.737 24.2693 218.499 24.2693C219.945 24.2693 221.301 23.9981 222.521 23.4558C223.742 22.8683 224.736 22.1 225.549 21.1509C226.363 20.2018 226.905 19.0719 227.176 17.8517H220.488C220.081 18.8008 219.313 19.2527 218.273 19.2527C217.505 19.2527 216.917 19.0268 216.42 18.5296C215.923 18.0777 215.652 17.3546 215.607 16.3603ZM220.397 11.4793C220.894 11.9313 221.166 12.5188 221.166 13.2871V13.3323H215.652C215.787 12.5188 216.104 11.8861 216.601 11.4793C217.098 11.0726 217.731 10.8466 218.499 10.8466C219.267 10.8466 219.9 11.0274 220.397 11.4793Z" fill="#EEEEEE"></path><path d="M299.102 8.37009C297.082 6.48187 294.228 5.42798 291.022 5.42798C284.523 5.42798 279.781 10.0388 279.781 16.406C279.781 19.6555 280.879 22.422 282.986 24.4419C285.006 26.3302 287.861 27.3841 291.066 27.3841C297.609 27.3841 302.352 22.7733 302.352 16.406C302.308 13.1565 301.21 10.3901 299.102 8.37009ZM291.022 23.1246C287.465 23.1246 284.655 20.1825 284.655 16.406C284.655 12.4539 287.29 9.73137 291.022 9.73137C294.711 9.73137 297.39 12.5417 297.39 16.406C297.433 20.4899 294.93 23.1246 291.022 23.1246Z" fill="#EEEEEE"></path><path d="M336.34 5.73535C335.593 5.73535 334.188 5.73535 332.871 5.77926C331.685 5.77926 330.543 5.82318 330.016 5.82318H329.753V27.0327H330.104C331.29 27.0327 332.695 27.0327 333.925 27.0767C334.847 27.0767 335.637 27.0767 336.12 27.0767C339.941 27.0767 343.102 25.9789 345.254 23.8711C347.23 21.9389 348.284 19.3042 348.284 16.2304C348.284 13.2443 347.318 10.6974 345.517 8.85312C343.41 6.78924 340.336 5.73535 336.34 5.73535ZM336.252 22.8172C335.549 22.8172 335.11 22.8172 334.452 22.7733H334.32V10.1266H334.452C335.066 10.0387 335.725 10.0387 336.296 10.0387C340.643 10.0387 343.366 12.41 343.366 16.2743C343.366 20.3581 340.687 22.8172 336.252 22.8172Z" fill="#EEEEEE"></path><path d="M360.448 14.6935C358.604 13.8591 356.979 13.1126 356.979 11.4879C356.979 10.3901 357.857 9.7314 359.306 9.7314C360.887 9.7314 361.634 10.2583 362.512 11.0927L364.971 7.66753C363.566 6.26234 361.414 5.47192 358.867 5.47192C354.432 5.47192 352.105 8.50186 352.105 11.5318C352.105 15.5717 355.222 17.0647 357.769 18.2943C359.526 19.1286 361.107 19.8751 361.107 21.3242C361.107 22.422 360.272 23.1246 358.911 23.1246C357.55 23.1246 355.662 22.5538 354.3 20.9729L351.709 24.0907C352.763 26.2863 356.057 27.428 358.779 27.428C362.951 27.428 365.981 24.8372 365.981 21.2803C365.981 17.2404 363.039 15.8791 360.448 14.6935Z" fill="#EEEEEE"></path><path d="M303.669 27.2084H308.983L312.759 18.0308H307.49L303.669 27.2084Z" fill="#EEEEEE"></path><path d="M318.819 9.90697L317.062 5.69141H313.725H312.627H311.749L312.188 6.70139L313.506 9.90697L314.823 13.1126L316.887 18.0307L320.707 27.2084H325.933L325.977 27.1644L322.2 18.0307L318.819 9.90697Z" fill="#EEEEEE"></path><path d="M270.955 14.8252H266.037V27.1645H270.955V14.8252Z" fill="#EEEEEE"></path><path d="M259.538 10.2582H259.582H277.366V5.64746H259.538V10.2582Z" fill="#EEEEEE"></path></svg>